<mxfile host="app.diagrams.net" agent="Mozilla/5.0 (Windows NT 10.0; Win64; x64) AppleWebKit/537.36 (KHTML, like Gecko) Chrome/130.0.0.0 Safari/537.36" version="26.2.14">
  <diagram name="PÃ¡gina-1" id="aU5e-4gyXZzoZdQWq91M">
    <mxGraphModel dx="2505" dy="2043" grid="1" gridSize="10" guides="1" tooltips="1" connect="1" arrows="1" fold="1" page="1" pageScale="1" pageWidth="827" pageHeight="1169" math="0" shadow="0">
      <root>
        <mxCell id="0" />
        <mxCell id="1" parent="0" />
        <mxCell id="9YhUjrj5osRhjf7E5tQx-17" style="edgeStyle=orthogonalEdgeStyle;rounded=0;orthogonalLoop=1;jettySize=auto;html=1;exitX=1;exitY=0.5;exitDx=0;exitDy=0;entryX=0;entryY=0.5;entryDx=0;entryDy=0;" edge="1" parent="1" source="9YhUjrj5osRhjf7E5tQx-1" target="9YhUjrj5osRhjf7E5tQx-3">
          <mxGeometry relative="1" as="geometry" />
        </mxCell>
        <mxCell id="9YhUjrj5osRhjf7E5tQx-1" value="Tiene" style="shape=rhombus;perimeter=rhombusPerimeter;whiteSpace=wrap;html=1;align=center;" vertex="1" parent="1">
          <mxGeometry x="340" y="30" width="120" height="60" as="geometry" />
        </mxCell>
        <mxCell id="9YhUjrj5osRhjf7E5tQx-16" style="edgeStyle=orthogonalEdgeStyle;rounded=0;orthogonalLoop=1;jettySize=auto;html=1;exitX=1;exitY=0.5;exitDx=0;exitDy=0;entryX=0;entryY=0.5;entryDx=0;entryDy=0;" edge="1" parent="1" source="9YhUjrj5osRhjf7E5tQx-2" target="9YhUjrj5osRhjf7E5tQx-1">
          <mxGeometry relative="1" as="geometry" />
        </mxCell>
        <mxCell id="9YhUjrj5osRhjf7E5tQx-20" style="edgeStyle=orthogonalEdgeStyle;rounded=0;orthogonalLoop=1;jettySize=auto;html=1;exitX=0.5;exitY=1;exitDx=0;exitDy=0;entryX=0.5;entryY=0;entryDx=0;entryDy=0;" edge="1" parent="1" source="9YhUjrj5osRhjf7E5tQx-2" target="9YhUjrj5osRhjf7E5tQx-19">
          <mxGeometry relative="1" as="geometry" />
        </mxCell>
        <mxCell id="9YhUjrj5osRhjf7E5tQx-27" style="edgeStyle=orthogonalEdgeStyle;rounded=0;orthogonalLoop=1;jettySize=auto;html=1;exitX=0;exitY=0.5;exitDx=0;exitDy=0;entryX=1;entryY=0.5;entryDx=0;entryDy=0;" edge="1" parent="1" source="9YhUjrj5osRhjf7E5tQx-2" target="9YhUjrj5osRhjf7E5tQx-24">
          <mxGeometry relative="1" as="geometry" />
        </mxCell>
        <mxCell id="9YhUjrj5osRhjf7E5tQx-31" style="edgeStyle=orthogonalEdgeStyle;rounded=0;orthogonalLoop=1;jettySize=auto;html=1;exitX=0.5;exitY=0;exitDx=0;exitDy=0;entryX=1;entryY=0.5;entryDx=0;entryDy=0;" edge="1" parent="1" source="9YhUjrj5osRhjf7E5tQx-2" target="9YhUjrj5osRhjf7E5tQx-29">
          <mxGeometry relative="1" as="geometry" />
        </mxCell>
        <mxCell id="9YhUjrj5osRhjf7E5tQx-2" value="Usuarios" style="whiteSpace=wrap;html=1;align=center;fillColor=#d5e8d4;strokeColor=#82b366;" vertex="1" parent="1">
          <mxGeometry x="190" y="40" width="100" height="40" as="geometry" />
        </mxCell>
        <mxCell id="9YhUjrj5osRhjf7E5tQx-3" value="Roles" style="whiteSpace=wrap;html=1;align=center;fillColor=#d5e8d4;strokeColor=#82b366;" vertex="1" parent="1">
          <mxGeometry x="520" y="40" width="100" height="40" as="geometry" />
        </mxCell>
        <mxCell id="9YhUjrj5osRhjf7E5tQx-35" style="edgeStyle=orthogonalEdgeStyle;rounded=0;orthogonalLoop=1;jettySize=auto;html=1;exitX=0;exitY=0.5;exitDx=0;exitDy=0;entryX=1;entryY=0.5;entryDx=0;entryDy=0;" edge="1" parent="1" source="9YhUjrj5osRhjf7E5tQx-4" target="9YhUjrj5osRhjf7E5tQx-33">
          <mxGeometry relative="1" as="geometry" />
        </mxCell>
        <mxCell id="9YhUjrj5osRhjf7E5tQx-41" style="edgeStyle=orthogonalEdgeStyle;rounded=0;orthogonalLoop=1;jettySize=auto;html=1;exitX=1;exitY=1;exitDx=0;exitDy=0;" edge="1" parent="1" source="9YhUjrj5osRhjf7E5tQx-4">
          <mxGeometry relative="1" as="geometry">
            <mxPoint x="-150" y="80.52941176470586" as="targetPoint" />
            <Array as="points">
              <mxPoint x="-50" y="100" />
              <mxPoint x="-150" y="100" />
            </Array>
          </mxGeometry>
        </mxCell>
        <mxCell id="9YhUjrj5osRhjf7E5tQx-42" value="Tarea_Origen" style="edgeLabel;html=1;align=center;verticalAlign=middle;resizable=0;points=[];" vertex="1" connectable="0" parent="9YhUjrj5osRhjf7E5tQx-41">
          <mxGeometry x="-0.0893" y="4" relative="1" as="geometry">
            <mxPoint x="-7" y="-4" as="offset" />
          </mxGeometry>
        </mxCell>
        <mxCell id="9YhUjrj5osRhjf7E5tQx-4" value="Tareas" style="whiteSpace=wrap;html=1;align=center;fillColor=#d5e8d4;strokeColor=#82b366;" vertex="1" parent="1">
          <mxGeometry x="-160" y="40" width="110" height="40" as="geometry" />
        </mxCell>
        <mxCell id="9YhUjrj5osRhjf7E5tQx-23" style="edgeStyle=orthogonalEdgeStyle;rounded=0;orthogonalLoop=1;jettySize=auto;html=1;exitX=0.5;exitY=0;exitDx=0;exitDy=0;entryX=0.5;entryY=1;entryDx=0;entryDy=0;" edge="1" parent="1" source="9YhUjrj5osRhjf7E5tQx-5" target="9YhUjrj5osRhjf7E5tQx-19">
          <mxGeometry relative="1" as="geometry" />
        </mxCell>
        <mxCell id="9YhUjrj5osRhjf7E5tQx-5" value="Oficinas" style="whiteSpace=wrap;html=1;align=center;fillColor=#d5e8d4;strokeColor=#82b366;" vertex="1" parent="1">
          <mxGeometry x="190" y="280" width="100" height="40" as="geometry" />
        </mxCell>
        <mxCell id="9YhUjrj5osRhjf7E5tQx-6" value="Estados" style="whiteSpace=wrap;html=1;align=center;fillColor=#d5e8d4;strokeColor=#82b366;" vertex="1" parent="1">
          <mxGeometry x="-520" y="40" width="100" height="40" as="geometry" />
        </mxCell>
        <mxCell id="9YhUjrj5osRhjf7E5tQx-7" value="Adjuntos" style="whiteSpace=wrap;html=1;align=center;fillColor=#d5e8d4;strokeColor=#82b366;" vertex="1" parent="1">
          <mxGeometry x="45" y="585" width="100" height="40" as="geometry" />
        </mxCell>
        <mxCell id="9YhUjrj5osRhjf7E5tQx-8" value="Bitacora_Acciones" style="whiteSpace=wrap;html=1;align=center;fillColor=#d5e8d4;strokeColor=#82b366;" vertex="1" parent="1">
          <mxGeometry x="35" y="680" width="110" height="40" as="geometry" />
        </mxCell>
        <mxCell id="9YhUjrj5osRhjf7E5tQx-9" value="Notificaciones" style="whiteSpace=wrap;html=1;align=center;fillColor=#d5e8d4;strokeColor=#82b366;" vertex="1" parent="1">
          <mxGeometry x="-200" y="595" width="100" height="40" as="geometry" />
        </mxCell>
        <mxCell id="9YhUjrj5osRhjf7E5tQx-10" value="Permisos" style="whiteSpace=wrap;html=1;align=center;fillColor=#d5e8d4;strokeColor=#82b366;" vertex="1" parent="1">
          <mxGeometry x="-200" y="675" width="100" height="40" as="geometry" />
        </mxCell>
        <mxCell id="9YhUjrj5osRhjf7E5tQx-11" value="Frecuencia_recordatorio" style="whiteSpace=wrap;html=1;align=center;fillColor=#d5e8d4;strokeColor=#82b366;" vertex="1" parent="1">
          <mxGeometry x="-220" y="765" width="150" height="40" as="geometry" />
        </mxCell>
        <mxCell id="9YhUjrj5osRhjf7E5tQx-12" value="Bitacora_Cambios_Estados" style="whiteSpace=wrap;html=1;align=center;fillColor=#d5e8d4;strokeColor=#82b366;" vertex="1" parent="1">
          <mxGeometry x="10" y="770" width="160" height="40" as="geometry" />
        </mxCell>
        <mxCell id="9YhUjrj5osRhjf7E5tQx-13" value="Complejidades" style="whiteSpace=wrap;html=1;align=center;fillColor=#d5e8d4;strokeColor=#82b366;" vertex="1" parent="1">
          <mxGeometry x="-520" y="-80" width="100" height="40" as="geometry" />
        </mxCell>
        <mxCell id="9YhUjrj5osRhjf7E5tQx-14" value="Prioridades" style="whiteSpace=wrap;html=1;align=center;fillColor=#d5e8d4;strokeColor=#82b366;" vertex="1" parent="1">
          <mxGeometry x="-520" y="130" width="100" height="40" as="geometry" />
        </mxCell>
        <mxCell id="9YhUjrj5osRhjf7E5tQx-15" value="Tipos_documentos" style="whiteSpace=wrap;html=1;align=center;fillColor=#d5e8d4;strokeColor=#82b366;" vertex="1" parent="1">
          <mxGeometry x="220" y="585" width="130" height="40" as="geometry" />
        </mxCell>
        <mxCell id="9YhUjrj5osRhjf7E5tQx-19" value="Usuario_X_Oficina" style="shape=rhombus;perimeter=rhombusPerimeter;whiteSpace=wrap;html=1;align=center;" vertex="1" parent="1">
          <mxGeometry x="170" y="150" width="140" height="60" as="geometry" />
        </mxCell>
        <mxCell id="9YhUjrj5osRhjf7E5tQx-30" style="edgeStyle=orthogonalEdgeStyle;rounded=0;orthogonalLoop=1;jettySize=auto;html=1;exitX=0;exitY=0.5;exitDx=0;exitDy=0;" edge="1" parent="1" source="9YhUjrj5osRhjf7E5tQx-24" target="9YhUjrj5osRhjf7E5tQx-4">
          <mxGeometry relative="1" as="geometry" />
        </mxCell>
        <mxCell id="9YhUjrj5osRhjf7E5tQx-24" value="Crea" style="shape=rhombus;perimeter=rhombusPerimeter;whiteSpace=wrap;html=1;align=center;" vertex="1" parent="1">
          <mxGeometry y="30" width="140" height="60" as="geometry" />
        </mxCell>
        <mxCell id="9YhUjrj5osRhjf7E5tQx-32" style="edgeStyle=orthogonalEdgeStyle;rounded=0;orthogonalLoop=1;jettySize=auto;html=1;exitX=0;exitY=0.5;exitDx=0;exitDy=0;" edge="1" parent="1" source="9YhUjrj5osRhjf7E5tQx-29" target="9YhUjrj5osRhjf7E5tQx-4">
          <mxGeometry relative="1" as="geometry" />
        </mxCell>
        <mxCell id="9YhUjrj5osRhjf7E5tQx-29" value="Asignado" style="shape=rhombus;perimeter=rhombusPerimeter;whiteSpace=wrap;html=1;align=center;" vertex="1" parent="1">
          <mxGeometry y="-60" width="140" height="60" as="geometry" />
        </mxCell>
        <mxCell id="9YhUjrj5osRhjf7E5tQx-36" style="edgeStyle=orthogonalEdgeStyle;rounded=0;orthogonalLoop=1;jettySize=auto;html=1;exitX=0;exitY=0.5;exitDx=0;exitDy=0;" edge="1" parent="1" source="9YhUjrj5osRhjf7E5tQx-33" target="9YhUjrj5osRhjf7E5tQx-6">
          <mxGeometry relative="1" as="geometry" />
        </mxCell>
        <mxCell id="9YhUjrj5osRhjf7E5tQx-37" style="edgeStyle=orthogonalEdgeStyle;rounded=0;orthogonalLoop=1;jettySize=auto;html=1;exitX=0.5;exitY=1;exitDx=0;exitDy=0;entryX=1;entryY=0.5;entryDx=0;entryDy=0;" edge="1" parent="1" source="9YhUjrj5osRhjf7E5tQx-33" target="9YhUjrj5osRhjf7E5tQx-14">
          <mxGeometry relative="1" as="geometry" />
        </mxCell>
        <mxCell id="9YhUjrj5osRhjf7E5tQx-38" style="edgeStyle=orthogonalEdgeStyle;rounded=0;orthogonalLoop=1;jettySize=auto;html=1;exitX=0.5;exitY=0;exitDx=0;exitDy=0;entryX=1;entryY=0.5;entryDx=0;entryDy=0;" edge="1" parent="1" source="9YhUjrj5osRhjf7E5tQx-33" target="9YhUjrj5osRhjf7E5tQx-13">
          <mxGeometry relative="1" as="geometry" />
        </mxCell>
        <mxCell id="9YhUjrj5osRhjf7E5tQx-33" value="Tiene" style="shape=rhombus;perimeter=rhombusPerimeter;whiteSpace=wrap;html=1;align=center;" vertex="1" parent="1">
          <mxGeometry x="-340" y="30" width="120" height="60" as="geometry" />
        </mxCell>
        <mxCell id="9YhUjrj5osRhjf7E5tQx-43" value="Pantallas" style="whiteSpace=wrap;html=1;align=center;fillColor=#d5e8d4;strokeColor=#82b366;" vertex="1" parent="1">
          <mxGeometry x="370" y="360" width="100" height="40" as="geometry" />
        </mxCell>
        <mxCell id="9YhUjrj5osRhjf7E5tQx-44" value="Acciones" style="whiteSpace=wrap;html=1;align=center;fillColor=#d5e8d4;strokeColor=#82b366;" vertex="1" parent="1">
          <mxGeometry x="370" y="290" width="100" height="40" as="geometry" />
        </mxCell>
        <mxCell id="9YhUjrj5osRhjf7E5tQx-45" value="Rol_X_Pantalla_X_Accion" style="shape=rhombus;perimeter=rhombusPerimeter;whiteSpace=wrap;html=1;align=center;" vertex="1" parent="1">
          <mxGeometry x="470" y="150" width="210" height="60" as="geometry" />
        </mxCell>
      </root>
    </mxGraphModel>
  </diagram>
</mxfile>
